<svg xmlns="http://www.w3.org/2000/svg" viewBox="0 0 77 123.5"><defs/><path fill="#F6DBD7" d="M69.495 35.804s1.038 24.719 0 29.504c-1.081 4.99-.54 14.198-10.583 22.49-.514.425-2.162 1.759-3.206 2.085l-.346 4.975L32.517 110.5 18.23 91.141l-.499-17.265-2.509-4.885-8.16-11.029V47.14l11.541 1.667 7.072-10.811 6.843-4.705h5.799l24.515-2.835 6.663 5.348z"/><path fill="#020202" d="M16.368 73.876c1.978-3.735-.82-7.8-2.745-9.726-1.313-1.313-3.08-1.832-4.05-3.444-1.884-3.14-2.826-8.816 1.257-9.401 2.339-.342 5.047.657 6.089 2.771.473.913.046 5.426 1.083 6.8.463.613 2.246 2.212 3.006 2.11.779-.104 2.298-2.215 2.688-2.896.797-1.388.597-5.045.839-6.343 1.071-5.896 2.791-16.45 9.422-19.311 0 0-4.468-5.446-6.074-12.566-1.251-5.55-5.234-9.213-7.678-10.192-1.41-.563-4.718.327-7.539 1.817-3.459 1.827-6.717 4.526-8.585 7.957-4.339 7.947-1.961 14.257-1.675 22.885.496 3.148 1.002 6.837 1.767 9.203.892 2.755 1.133 5.643 5.399 10.232 1.833 1.97 3.146 2.448 4.746 3.961 1.888 1.779 2.05 6.143 2.05 6.143"/><path fill="#020202" d="M21.693 10.003c3.838-7.892 21.81-10.951 28.989-6.53 4.752 2.928 8.476 7.608 13.387 10.355 5.794 3.247 14.856 9.982 11.103 17.757-.585 1.194-1.998 2.617-3.14 3.296-5.551 3.305-7.15-3.1-11.247-2.203-3.724.813-7.307 3.222-11.018 4.348-6.835 2.077-14.471-.939-18.038-6.936-1.429-2.389-2.19-5.114-2.897-7.772-2.271-8.544-8.065-10.405-7.139-12.315"/><path fill="none" stroke="#020202" stroke-linecap="round" stroke-linejoin="round" d="M18.243 55.633c2.42-.419 12.498-1.211 13.34-1.211M40.664 48.822c-8.535-.451-12.821 9.21-6.408 14.458 1.914 1.565 5.621 1.565 7.906 1.254 5.009-.7 7.407-8.308 5.395-12.366-.792-1.602-4.177-3.202-6.893-3.346zM48.27 54.593c1.185-.711 5.234-1.425 7.091.555"/><path fill="none" stroke="#020202" stroke-linecap="round" stroke-linejoin="round" d="M61.184 48.354c-1.741.442-3.378 1.526-4.363 2.905-2.649 3.714-1.117 8.272 2.125 10.022 4.923 2.784 9.79-.855 11.074-5.58.485-1.841-.051-4.905-1.646-6.049-1.669-1.194-4.079-2.069-7.19-1.298zM70.791 53.832c.827.099 1.655-.072 2.482.028M50.583 64.763c3.453-2.669 6.493.742 3.769 2.084"/><path fill="none" stroke="#020202" stroke-linecap="round" stroke-linejoin="round" stroke-width="1.5" d="M59.369 43.297c2.721-1.113 9.563-.519 10.836 0M35.625 44.418c2.941-1.076 7.827-1.575 11.019-.591"/><path fill="none" stroke="#020202" stroke-linecap="round" stroke-linejoin="round" d="M56.264 73.583c-2.247.827-6.314.243-7.994.526-1.498.156-2.674 1.093-5.194 1.116-.499.213 1.403 4.188 2.821 5.632 1.027 1.044 2.659 1.897 3.351 2.094"/><path fill="#020202" d="M17.73 90.417c0-5.381-1.361-11.217-1.361-16.542l.668-2.511c.643 2.396 5.148 7.271 6.405 8.84 1.626 2.042 3.492 3.35 5.461 5.12 3.054 2.754 7.292 4.384 11.245 5.211 4.339.929 8.604.957 12.843.093a23.244 23.244 0 002.714-.744c-.899 2.654-4.296 4.635-6.551 4.72-4.567.171-8.935.399-13.401 1.413-2.812.643-5.694 3.083-7.465 5.338-.342.429-1.907.525-2.289-.534-2.297-3.126-4.915-5.085-6.813-8.467-.696-1.241-1.456-1.937-1.456-1.937"/><path fill="#FFF" d="M7.697 100.013c-.726.58 13.547 18.783 13.547 18.783-.761.549 11.434-7.316 12.119-9.044.019-.487-16.529-20.213-16.529-20.213s-5.105 6.54-9.137 10.474"/><path fill="none" stroke="#020202" stroke-linecap="round" stroke-linejoin="round" stroke-width="1.5" d="M7.697 100.013c-.726.58 13.547 18.783 13.547 18.783-.761.549 11.434-7.316 12.119-9.044.019-.487-16.529-20.213-16.529-20.213s-5.105 6.54-9.137 10.474z"/><path fill="#FFF" d="M34.02 111.155a.928.928 0 01.318-1.415c10.228-5.156 22.562-18.095 23.93-18.063.945.032 7.335 7.802 7.481 8.615.13.786-16.825 17.162-20.815 20.731a1.257 1.257 0 01-1.736-.047c-1.951-1.937-6.758-6.788-9.178-9.821"/><path fill="none" stroke="#020202" stroke-linecap="round" stroke-linejoin="round" stroke-width="1.5" d="M34.02 111.155a.928.928 0 01.318-1.415c10.228-5.156 22.562-18.095 23.93-18.063.945.032 7.335 7.802 7.481 8.615.13.786-16.825 17.162-20.815 20.731a1.257 1.257 0 01-1.736-.047c-1.951-1.937-6.758-6.788-9.178-9.821z"/><path fill="none" stroke="#020202" stroke-linecap="round" stroke-linejoin="round" d="M13.41 56.949c-.293 1.186.386 3.215 1.832 3.682"/><path fill="#FFF" d="M39.401 60.689c4.646 1.172 7.273-5.657 2.648-7.167-6.167-2.013-8.949 5.584-2.648 7.167"/><path fill="none" stroke="#020202" stroke-miterlimit="10" d="M39.401 60.689c4.646 1.172 7.273-5.657 2.648-7.167-6.167-2.013-8.949 5.584-2.648 7.167z"/><path fill="#020202" d="M41.082 58.448c1.979.524 3.156-2.747 1.188-3.433-2.626-.913-3.874 2.726-1.188 3.433"/><path fill="#FFF" d="M62.936 59.318c4.646 1.172 7.274-5.656 2.648-7.166-6.167-2.013-8.951 5.584-2.648 7.166"/><path fill="none" stroke="#020202" stroke-miterlimit="10" d="M62.936 59.318c4.646 1.172 7.274-5.656 2.648-7.166-6.167-2.013-8.951 5.584-2.648 7.166z"/><path fill="#020202" d="M64.616 57.078c1.979.524 3.156-2.747 1.188-3.433-2.626-.911-3.874 2.726-1.188 3.433"/></svg>
