<svg xmlns="http://www.w3.org/2000/svg" width="612" height="792"><g fill-rule="evenodd" clip-rule="evenodd"><path fill="#303D26" d="M557 397.5c0 81.833-.027 163.667.096 245.5.006 3.424-.672 4.097-4.096 4.095-164-.108-328-.108-492 0-3.423.002-4.097-.671-4.095-4.095.108-164 .108-328 0-492-.002-3.423.67-4.098 4.095-4.095 164 .108 328 .108 492 0 3.423-.002 4.102.669 4.096 4.095-.123 82.166-.096 164.333-.096 246.5zm-233.811-6.995H323c0 28.654.308 57.313-.128 85.96-.22 14.445-1.769 28.871-6.753 42.659-10.581 29.262-48.727 38.945-72.221 18.325-6.512-5.715-6.785-6.891-2.591-14.571 2.147-3.933 4.488-7.77 6.923-11.532 3.808-5.881 7.389-11.912 9.292-18.667 2.839-10.082 2.726-19.923-5.237-27.937-8.23-8.282-18.532-9.475-29.18-6.572-10.432 2.843-15.693 11.375-17.875 21.029-5.704 25.241-.015 47.797 19.581 65.322 21.064 18.84 46.703 21.805 73.142 16.696 41.726-8.062 69.967-43.519 70.031-86.185.058-38.15.013-76.301.014-114.452 0-19.325-.063-38.651.025-57.976.06-13.205 4.313-18.631 17.129-21.907 4.491-1.148 9.074-2.086 13.673-2.641 10.138-1.222 9.937-1.104 10.231-11.313.116-4.022-1.114-4.851-4.935-4.836-37.983.144-75.968.087-113.952.087-11.155 0-11.015 0-11.007 11.234.002 3.037.94 4.063 3.812 4.337 7.779.743 15.506 1.938 22.909 4.542 13.379 4.706 17.273 10.22 17.293 24.43.041 27.991.013 55.98.013 83.968z"/><path fill="#FCFCFB" d="M323.189 390.505c0-27.988.027-55.977-.012-83.965-.02-14.209-3.914-19.724-17.293-24.43-7.403-2.604-15.13-3.799-22.909-4.542-2.872-.274-3.809-1.301-3.812-4.337-.008-11.234-.148-11.234 11.007-11.234 37.984 0 75.969.057 113.952-.087 3.82-.014 5.051.814 4.935 4.836-.295 10.208-.094 10.09-10.231 11.313-4.599.555-9.182 1.492-13.673 2.641-12.816 3.275-17.069 8.702-17.129 21.907-.089 19.325-.025 38.65-.025 57.976-.001 38.151.044 76.302-.014 114.452-.064 42.666-28.306 78.123-70.031 86.185-26.439 5.108-52.078 2.144-73.142-16.696-19.595-17.525-25.284-40.081-19.581-65.322 2.182-9.654 7.443-18.187 17.875-21.029 10.647-2.902 20.95-1.71 29.18 6.572 7.962 8.014 8.076 17.854 5.237 27.937-1.902 6.755-5.484 12.786-9.292 18.667-2.436 3.763-4.776 7.6-6.923 11.532-4.194 7.681-3.921 8.856 2.591 14.571 23.494 20.62 61.64 10.937 72.221-18.325 4.984-13.788 6.533-28.214 6.753-42.659.436-28.646.128-57.306.128-85.96.062-.003.126-.003.188-.003z"/></g></svg>
