<svg xmlns="http://www.w3.org/2000/svg" viewBox="56.9 146.9 500.2 500.2"><defs/><path fill="#303D26" d="M557 397.5l.1 245.5c0 3.4-.7 4.1-4.1 4l-492 .1c-3.4 0-4.1-.7-4-4.1V151c-.1-3.4.6-4.1 4-4.1h492c3.4 0 4.1.7 4.1 4.1l-.1 246.5zm-233.8-7h-.2c0 28.7.3 57.3-.1 86-.2 14.4-1.8 28.8-6.8 42.6a45.6 45.6 0 01-72.2 18.3c-6.5-5.7-6.8-6.8-2.6-14.5 2.2-4 4.5-7.8 7-11.6 3.7-5.8 7.3-11.9 9.2-18.6 2.9-10.1 2.7-20-5.2-28-8.2-8.2-18.5-9.4-29.2-6.5-10.4 2.8-15.7 11.3-17.9 21-5.7 25.2 0 47.8 19.6 65.3 21 18.9 46.7 21.8 73.2 16.7a86 86 0 0070-86.2V360.6v-58c0-13.2 4.3-18.6 17.2-22 4.4-1 9-2 13.6-2.5 10.2-1.3 10-1.2 10.3-11.4 0-4-1.2-4.8-5-4.8h-114c-11 0-11 0-11 11.3 0 3 1 4 3.9 4.4 7.8.7 15.5 1.9 22.9 4.5 13.4 4.7 17.3 10.2 17.3 24.4v84z"/><path fill="#FCFCFB" d="M323.2 390.5v-84c0-14.2-4-19.7-17.3-24.4a96.1 96.1 0 00-23-4.5c-2.8-.3-3.7-1.3-3.7-4.4 0-11.2-.2-11.2 11-11.2h114c3.7-.1 5 .7 4.9 4.7-.3 10.3-.1 10.1-10.3 11.4-4.6.5-9.2 1.5-13.6 2.6-12.9 3.3-17.1 8.7-17.2 22V475a86 86 0 01-70 86.2c-26.5 5.1-52.1 2.2-73.2-16.7-19.6-17.5-25.3-40-19.6-65.3 2.2-9.7 7.5-18.2 18-21 10.6-3 20.9-1.7 29 6.5 8 8 8.2 17.9 5.3 28a69.5 69.5 0 01-9.3 18.7c-2.4 3.7-4.7 7.6-6.9 11.5-4.2 7.7-4 8.8 2.6 14.6a45.6 45.6 0 0072.2-18.4c5-13.8 6.6-28.2 6.8-42.6.4-28.7.1-57.3.1-86h.2z"/></svg>
