<svg xmlns="http://www.w3.org/2000/svg" viewBox="0 0 1000 1000"><defs/><path d="M93.4 12C53.8 18 18.8 53.1 12.3 94c-3 19.5-3 793.9 0 813.3a98.6 98.6 0 0066 77.9c12.3 4.3 17.9 4.3 422 4.3 392.2 0 409.9-.2 422.2-3.9a98.4 98.4 0 0064-65c3-10.7 3.5-52.8 3.5-420.1C990 96 990 92.3 985.7 78a105.6 105.6 0 00-63.4-63.4c-10.6-3.7-34.6-3.9-413.6-4-221.5-.3-408.2.3-415.3 1.4zm431.1 320.4c6.7 6.3 81.6 72 166.3 146.2 101 88.5 155 137.1 157.3 141.7 8.7 18.8 6 38.5-7.4 51.7-6.9 7.1-9.5 8.2-17.5 8.2a37.4 37.4 0 01-14-2.8c-2.6-1.5-72.5-62-155.3-134.5a7392.8 7392.8 0 00-152.8-132c-1 0-62.5 53-136.4 117.9C173.9 696 193 680.2 180.7 680.2c-11.6 0-21.1-6.3-27.2-18.2-5-9.3-4.7-30.5.2-40.6 2.6-5.6 47.6-46.1 156.7-141.7a21439 21439 0 00166.3-146.2c12.8-11.7 14-12.4 24.4-12.4 10.2 0 11.7.9 23.4 11.3z"/></svg>
